<svg width="25" height="24" viewBox="0 0 25 24" fill="none" xmlns="http://www.w3.org/2000/svg">
<g clip-path="url(#clip0_1_25292)">
<path d="M24.3334 12C24.3334 5.37262 18.9607 0 12.3334 0C5.706 0 0.333374 5.37262 0.333374 12C0.333374 17.9895 4.72162 22.954 10.4584 23.8542V15.4688H7.4115V12H10.4584V9.35625C10.4584 6.34875 12.2499 4.6875 14.991 4.6875C16.3039 4.6875 17.6771 4.92188 17.6771 4.92188V7.875H16.164C14.6733 7.875 14.2084 8.80003 14.2084 9.74906V12H17.5365L17.0045 15.4688H14.2084V23.8542C19.9451 22.954 24.3334 17.9896 24.3334 12Z" fill="#1877F2"/>
<path d="M17.0045 15.4688L17.5365 12H14.2084V9.74906C14.2084 8.79994 14.6733 7.875 16.164 7.875H17.6771V4.92188C17.6771 4.92188 16.3039 4.6875 14.9909 4.6875C12.2499 4.6875 10.4584 6.34875 10.4584 9.35625V12H7.4115V15.4688H10.4584V23.8542C11.0786 23.9514 11.7055 24.0001 12.3334 24C12.9612 24.0001 13.5881 23.9514 14.2084 23.8542V15.4688H17.0045Z" fill="white"/>
</g>
<defs>
<clipPath id="clip0_1_25292">
<rect width="24" height="24" fill="white" transform="translate(0.333374)"/>
</clipPath>
</defs>
</svg>
