<svg width="25" height="24" viewBox="0 0 25 24" fill="none" xmlns="http://www.w3.org/2000/svg">
<g clip-path="url(#clip0_1_25281)">
<path d="M5.98556 14.5036L5.15016 17.6223L2.09677 17.6869C1.18425 15.9944 0.666656 14.0579 0.666656 12.0001C0.666656 10.0102 1.15059 8.13374 2.00841 6.48145H2.00906L4.72744 6.97982L5.91825 9.68188C5.66902 10.4085 5.53317 11.1885 5.53317 12.0001C5.53327 12.881 5.69283 13.725 5.98556 14.5036Z" fill="#FBBB00"/>
<path d="M24.4571 9.75781C24.5949 10.4837 24.6668 11.2334 24.6668 11.9996C24.6668 12.8587 24.5764 13.6967 24.4044 14.5051C23.8202 17.2558 22.2938 19.6578 20.1793 21.3576L20.1787 21.3569L16.7547 21.1822L16.2701 18.1572C17.6732 17.3343 18.7697 16.0466 19.3473 14.5051H12.9306V9.75781H24.4571Z" fill="#518EF8"/>
<path d="M20.1786 21.3577L20.1792 21.3584C18.1228 23.0113 15.5104 24.0004 12.6667 24.0004C8.09683 24.0004 4.12366 21.4461 2.09683 17.6872L5.98563 14.5039C6.99902 17.2085 9.60803 19.1338 12.6667 19.1338C13.9814 19.1338 15.2131 18.7784 16.27 18.158L20.1786 21.3577Z" fill="#28B446"/>
<path d="M20.3262 2.76262L16.4387 5.94525C15.3449 5.26153 14.0519 4.86656 12.6666 4.86656C9.53872 4.86656 6.88091 6.88017 5.91828 9.68175L2.00905 6.48131H2.00839C4.00555 2.63077 8.02883 0 12.6666 0C15.5783 0 18.248 1.03716 20.3262 2.76262Z" fill="#F14336"/>
</g>
<defs>
<clipPath id="clip0_1_25281">
<rect width="24" height="24" fill="white" transform="translate(0.666656)"/>
</clipPath>
</defs>
</svg>
